<svg width="26" height="25" viewBox="0 0 26 25" fill="none" xmlns="http://www.w3.org/2000/svg">
<path d="M16.4789 2.08333C16.926 2.08229 17.2795 2.42587 17.2805 2.88397L17.2816 3.66483C20.1822 3.88972 22.0982 5.84499 22.1014 8.84349L22.1128 17.6203C22.117 20.8895 20.0408 22.901 16.7129 22.9062L8.58386 22.9167C5.27674 22.9208 3.17457 20.8614 3.17041 17.5829L3.15897 8.90908C3.15482 5.8908 5.00331 3.94074 7.90393 3.67733L7.90289 2.89647C7.90185 2.43836 8.24493 2.09374 8.70238 2.09374C9.15982 2.0927 9.50291 2.43628 9.50395 2.89439L9.50499 3.62319L15.6805 3.61486L15.6795 2.88606C15.6784 2.42795 16.0215 2.08437 16.4789 2.08333ZM16.9031 16.8666H16.8927C16.4145 16.878 16.0309 17.2747 16.0413 17.7536C16.0423 18.2325 16.428 18.6271 16.9062 18.6375C17.3938 18.6365 17.7889 18.2398 17.7879 17.7505C17.7879 17.2612 17.3918 16.8666 16.9031 16.8666ZM8.33642 16.8676C7.85818 16.8884 7.48391 17.2851 7.48495 17.764C7.50678 18.243 7.90185 18.6178 8.38009 18.5959C8.84897 18.5751 9.2222 18.1784 9.20037 17.6995C9.18997 17.231 8.80426 16.8666 8.33642 16.8676ZM12.6198 16.8624C12.1415 16.8843 11.7683 17.2799 11.7683 17.7588C11.7901 18.2377 12.1852 18.6115 12.6634 18.5907C13.1313 18.5688 13.5056 18.1732 13.4837 17.6932C13.4733 17.2258 13.0876 16.8614 12.6198 16.8624ZM8.33122 13.1195C7.85299 13.1403 7.47975 13.537 7.48079 14.0159C7.50159 14.4948 7.89769 14.8696 8.37593 14.8478C8.84377 14.827 9.217 14.4303 9.19517 13.9513C9.18478 13.4828 8.80011 13.1184 8.33122 13.1195ZM12.6156 13.083C12.1374 13.1039 11.7631 13.5005 11.7641 13.9795C11.7849 14.4584 12.181 14.8322 12.6593 14.8113C13.1271 14.7895 13.5004 14.3938 13.4796 13.9149C13.4681 13.4464 13.0835 13.082 12.6156 13.083ZM16.899 13.0882C16.4207 13.0987 16.0465 13.4839 16.0475 13.9628V13.9743C16.0579 14.4532 16.453 14.8165 16.9322 14.8061C17.4001 14.7947 17.7733 14.398 17.7629 13.9191C17.7411 13.461 17.3658 13.0872 16.899 13.0882ZM15.6826 5.21822L9.50707 5.22655L9.50811 6.06884C9.50811 6.51757 9.16606 6.87156 8.70862 6.87156C8.25117 6.8726 7.90705 6.51965 7.90705 6.07092L7.90601 5.26924C5.87869 5.47018 4.75691 6.64876 4.76003 8.907L4.76107 9.2308L20.5013 9.20997V8.84557C20.4566 6.60711 19.3213 5.4327 17.2836 5.25779L17.2847 6.05947C17.2847 6.50716 16.9322 6.86219 16.4852 6.86219C16.0277 6.86323 15.6836 6.50924 15.6836 6.06155L15.6826 5.21822Z" fill="#6495ED"/>
</svg>
