<svg width="25" height="25" viewBox="0 0 25 25" fill="none" xmlns="http://www.w3.org/2000/svg">
<path d="M10.4167 21.875H5.125C4.02043 21.875 3.125 20.9795 3.125 19.875V12.7761C3.125 12.2644 3.32115 11.7721 3.67309 11.4006L11.0481 3.61588C11.8369 2.7832 13.163 2.7832 13.9519 3.61588L21.3269 11.4006C21.6788 11.7721 21.875 12.2644 21.875 12.7761V19.875C21.875 20.9796 20.9796 21.875 19.875 21.875H14.5833M10.4167 21.875V16.125C10.4167 15.8488 10.6405 15.625 10.9167 15.625H14.0833C14.3595 15.625 14.5833 15.8488 14.5833 16.125V21.875M10.4167 21.875H14.5833" stroke="#555B59" stroke-width="1.5"/>
</svg>
