<svg width="24" height="24" viewBox="0 0 24 24" fill="none" xmlns="http://www.w3.org/2000/svg">
<g clip-path="url(#clip0_9_1280)">
<path d="M10.6517 3.25114C10.5844 3.18964 10.5157 3.12809 10.4445 3.06654C9.06042 1.86814 6.65339 0.439575 3.04688 0.439575C2.65856 0.439575 2.34375 0.754388 2.34375 1.1427V1.64548C5.86383 1.838 8.77641 2.61115 10.6517 3.25114Z" fill="#555B59"/>
<path d="M15.4365 2.56404C17.4141 2.0532 19.4998 1.7442 21.6557 1.64028V1.1427C21.6557 0.754388 21.3409 0.439575 20.9526 0.439575C17.346 0.439575 14.9391 1.86814 13.5549 3.06654C13.5179 3.09856 13.4818 3.13058 13.4458 3.16259C14.0174 2.96478 14.6822 2.7589 15.4365 2.56404Z" fill="#555B59"/>
<path d="M23.2969 3.00665C17.1774 3.00665 13.1591 4.70461 12 5.26481V5.27845C10.8224 4.75279 6.47559 3.00665 0.703125 3.00665C0.314812 3.00665 0 3.32147 0 3.70978V20.5136C0 20.9019 0.314812 21.2167 0.703125 21.2167C6.99366 21.2167 11.621 23.4547 11.6882 23.4876C11.7867 23.5363 11.8935 23.5605 12 23.5605H12C12.0154 23.5605 12.0308 23.5599 12.0463 23.5589C12.0512 23.5586 12.0562 23.5579 12.0612 23.5575C12.0716 23.5566 12.0821 23.5556 12.0925 23.5543C12.0983 23.5535 12.1042 23.5524 12.1101 23.5515C12.1195 23.55 12.1289 23.5485 12.1383 23.5466C12.1446 23.5453 12.1508 23.5438 12.157 23.5424C12.1659 23.5404 12.1748 23.5383 12.1836 23.5359C12.19 23.5342 12.1964 23.5322 12.2028 23.5303C12.2114 23.5277 12.2198 23.525 12.2283 23.5221C12.2347 23.5199 12.2412 23.5176 12.2475 23.5152C12.2558 23.5121 12.264 23.5087 12.2723 23.5053C12.2787 23.5027 12.285 23.4999 12.2914 23.497C12.2995 23.4933 12.3074 23.4894 12.3154 23.4854C12.3216 23.4823 12.3278 23.4792 12.334 23.4758C12.3364 23.4746 12.3388 23.4735 12.3411 23.4722C12.3818 23.4496 16.485 21.2167 23.2969 21.2167C23.6852 21.2167 24 20.9019 24 20.5136V3.70978C24 3.32142 23.6852 3.00665 23.2969 3.00665ZM2.7892 6.64842C2.7892 6.45089 2.87227 6.26245 3.01814 6.12923C3.16397 5.99601 3.35888 5.93034 3.55589 5.94815C5.59767 6.1335 7.55466 6.51389 9.37238 7.07883C9.66642 7.17023 9.86681 7.44234 9.86681 7.75026V10.5628C9.86681 10.7863 9.76055 10.9964 9.58064 11.129C9.45839 11.219 9.31191 11.2659 9.16369 11.2659C9.09375 11.2659 9.02344 11.2555 8.95505 11.2342C7.23155 10.6986 5.37225 10.3375 3.42877 10.1611C3.06656 10.1282 2.7892 9.82453 2.7892 9.46087V6.64842ZM9.83517 19.209C9.74152 19.5103 9.46373 19.7036 9.16392 19.7036C9.09478 19.7036 9.02452 19.6933 8.95505 19.6717C7.23155 19.1361 5.37225 18.775 3.42877 18.5986C3.04205 18.5635 2.75695 18.2215 2.79206 17.8348C2.82717 17.448 3.16941 17.1629 3.55584 17.1981C5.59762 17.3835 7.55461 17.7638 9.37233 18.3288C9.74325 18.4441 9.95044 18.8381 9.83517 19.209ZM9.83517 16.3965C9.74152 16.6978 9.46373 16.8911 9.16392 16.8911C9.09478 16.8911 9.02452 16.8808 8.95505 16.8592C7.23155 16.3236 5.37225 15.9625 3.42877 15.7861C3.04205 15.751 2.75695 15.409 2.79206 15.0223C2.82717 14.6355 3.16941 14.3505 3.55584 14.3856C5.59762 14.571 7.55461 14.9513 9.37233 15.5163C9.74325 15.6316 9.95044 16.0256 9.83517 16.3965ZM9.83517 13.584C9.74152 13.8853 9.46373 14.0786 9.16392 14.0786C9.09478 14.0786 9.02452 14.0683 8.95505 14.0467C7.23155 13.5111 5.37225 13.15 3.42877 12.9736C3.04205 12.9385 2.75695 12.5965 2.79206 12.2098C2.82717 11.823 3.16941 11.5377 3.55584 11.5731C5.59762 11.7585 7.55461 12.1388 9.37233 12.7038C9.74325 12.8191 9.95044 13.2131 9.83517 13.584ZM20.5478 18.5987C18.6044 18.7751 16.7451 19.1362 15.0215 19.6718C14.952 19.6934 14.8817 19.7037 14.8126 19.7037C14.5128 19.7037 14.235 19.5104 14.1414 19.209C14.0262 18.8382 14.2333 18.4442 14.6042 18.3289C16.422 17.764 18.3789 17.3836 20.4207 17.1982C20.8071 17.1631 21.1494 17.4482 21.1845 17.835C21.2196 18.2216 20.9346 18.5636 20.5478 18.5987ZM20.5478 15.7862C18.6044 15.9626 16.7451 16.3237 15.0215 16.8593C14.952 16.8809 14.8817 16.8912 14.8126 16.8912C14.5128 16.8912 14.235 16.6979 14.1414 16.3965C14.0262 16.0257 14.2333 15.6317 14.6042 15.5164C16.422 14.9515 18.3789 14.5711 20.4207 14.3857C20.8071 14.3505 21.1494 14.6357 21.1845 15.0225C21.2196 15.4091 20.9346 15.7511 20.5478 15.7862ZM20.5478 12.9737C18.6044 13.1501 16.7451 13.5112 15.0215 14.0468C14.952 14.0684 14.8817 14.0787 14.8126 14.0787C14.5128 14.0787 14.235 13.8854 14.1414 13.584C14.0262 13.2132 14.2333 12.8192 14.6042 12.7039C16.422 12.139 18.3789 11.7586 20.4207 11.5732C20.8071 11.5381 21.1494 11.8232 21.1845 12.21C21.2196 12.5966 20.9346 12.9386 20.5478 12.9737ZM20.5478 10.1611C18.6044 10.3376 16.7451 10.6986 15.0215 11.2342C14.952 11.2558 14.8817 11.2661 14.8126 11.2661C14.5128 11.2661 14.235 11.0729 14.1414 10.7715C14.0262 10.4007 14.2333 10.0066 14.6042 9.89137C16.422 9.32643 18.3789 8.94604 20.4207 8.7607C20.8071 8.72536 21.1494 9.01059 21.1845 9.3974C21.2196 9.78408 20.9346 10.126 20.5478 10.1611ZM20.5478 7.34864C18.6044 7.52508 16.7451 7.88611 15.0215 8.42175C14.952 8.44331 14.8817 8.45362 14.8126 8.45362C14.5128 8.45362 14.235 8.26036 14.1414 7.959C14.0262 7.58817 14.2333 7.19414 14.6042 7.07887C16.422 6.51393 18.3789 6.13354 20.4207 5.9482C20.8071 5.91304 21.1494 6.19814 21.1845 6.5849C21.2196 6.97158 20.9346 7.31353 20.5478 7.34864Z" fill="#555B59"/>
</g>
<defs>
<clipPath id="clip0_9_1280">
<rect width="24" height="24" fill="white"/>
</clipPath>
</defs>
</svg>
